<svg width="24" height="24" viewBox="0 0 24 24" fill="none" xmlns="http://www.w3.org/2000/svg">
  <path
    d="M3.5 7.75C3.5 6.7835 4.2835 6 5.25 6H9.15C9.649 6 10.121 6.223 10.438 6.607L11.312 7.643C11.629 8.027 12.101 8.25 12.6 8.25H18.75C19.7165 8.25 20.5 9.0335 20.5 10V16.75C20.5 17.7165 19.7165 18.5 18.75 18.5H5.25C4.2835 18.5 3.5 17.7165 3.5 16.75V7.75Z"
    stroke="currentColor"
    stroke-width="1.6"
    stroke-linejoin="round"
  />
  <rect
    x="10.1"
    y="11.1"
    width="5.8"
    height="4.8"
    rx="1.2"
    stroke="currentColor"
    stroke-width="1.6"
  />
  <circle cx="12.2" cy="13.5" r="0.7" fill="currentColor" />
  <circle cx="13.8" cy="13.5" r="0.7" fill="currentColor" />
  <path
    d="M8.3 13.5H10.1"
    stroke="currentColor"
    stroke-width="1.6"
    stroke-linecap="round"
  />
</svg>
