<svg width="128" height="128" viewBox="0 0 128 128" xmlns="http://www.w3.org/2000/svg">
  <path
    d="M16 32.5C16 28.9101 18.9101 26 22.5 26H49.1C51.0656 26 52.9238 26.8848 54.158 28.4091L58.842 34.1909C60.0762 35.7152 61.9344 36.6 63.9 36.6H105.5C109.09 36.6 112 39.5101 112 43.1V91.5C112 95.0899 109.09 98 105.5 98H22.5C18.9101 98 16 95.0899 16 91.5V32.5Z"
    fill="#E7A93C"
  />
  <path
    d="M28 67.5H70.5L61.5 58.5L66.8 53.2L84.8 71.2L66.8 89.2L61.5 83.9L70.5 74.9H28V67.5Z"
    fill="#1F1F1F"
  />
  <path
    d="M81 54H100C102.209 54 104 55.7909 104 58V84C104 86.2091 102.209 88 100 88H81V80.5H96.5V61.5H81V54Z"
    fill="#1F1F1F"
    opacity="0.8"
  />
</svg>
